<?xml version="1.0" encoding="UTF-8"?>
<svg version="1.1" xmlns="http://www.w3.org/2000/svg" width="1024" height="1024">
<path d="M0 0 C1.09828125 0.46535156 2.1965625 0.93070313 3.328125 1.41015625 C14.63256843 6.27213844 24.70348672 11.63959358 34 19.75 C34.90492188 20.51183594 34.90492188 20.51183594 35.828125 21.2890625 C46.0551728 30.60810138 52.85996903 43.74525754 57 56.75 C57.23638184 57.48959961 57.47276367 58.22919922 57.71630859 58.99121094 C67.52232864 90.78074694 70.74227056 124.65084024 73.95898438 157.59936523 C75.31934458 179.83403627 75.31934458 179.83403627 84 199.75 C84 200.41 84 201.07 84 201.75 C94.06359811 206.11089252 104.11714875 207.56694383 114.91088867 208.82635498 C145.08967934 212.39348279 172.31639289 218.37626929 192.42382812 243.53125 C194.59215476 246.32265901 196.72780873 249.13732596 198.84912109 251.96459961 C202.78317092 257.20298985 206.86412207 262.28418319 211.0625 267.3125 C238.61295156 300.51667706 238.61295156 300.51667706 238.40625 314.33984375 C236.99633653 322.70442657 231.74956675 330.71686227 225 335.75 C209.3394621 345.77844764 192.86396532 346.93808845 174.68945312 347.9609375 C158.54745325 348.42878584 158.54745325 348.42878584 145.37890625 356.54296875 C138.19434141 365.45045082 137.37519323 376.64208714 138 387.75 C138.54306654 391.57844164 139.32113341 395.34369349 140.125 399.125 C140.45516113 400.72867432 140.45516113 400.72867432 140.79199219 402.36474609 C142.76642753 411.86654407 144.87358403 421.34060668 147.03173828 430.80224609 C152.72278403 455.90267342 150.5007641 479.54104223 136.9609375 501.890625 C133.73999021 506.58730511 129.98108263 510.69154651 126 514.75 C124.84878662 515.92393311 124.84878662 515.92393311 123.67431641 517.12158203 C115.63310424 525.02478544 106.66347824 531.07906309 97 536.8125 C73.57149655 550.44130727 73.57149655 550.44130727 61.0234375 573.4921875 C55.17488057 600.38966157 65.09890114 623.98869508 74.30090332 648.85974121 C74.92853072 650.55675716 75.55193972 652.25533185 76.17480469 653.95410156 C86.2625054 681.25079219 98.83599928 699.67096757 124.53295898 713.83178711 C142.20275849 723.56969143 142.20275849 723.56969143 145 732.75 C145 737.67895762 143.18889558 740.6691758 139.8828125 744.13671875 C131.39094734 751.41294346 120.03713673 750.59056347 109.46728516 749.97753906 C103.93833819 749.46764607 99.06087629 747.97065961 94 745.75 C92.60974609 745.14865234 92.60974609 745.14865234 91.19140625 744.53515625 C77.79877323 737.98131456 68.65216827 726.502589 60 714.75 C59.39929688 713.95464844 58.79859375 713.15929687 58.1796875 712.33984375 C53.37759529 705.76306529 49.30902973 698.71127687 45.17407227 691.70458984 C44.67834717 690.86621582 44.18262207 690.0278418 43.671875 689.1640625 C43.2294043 688.4107666 42.78693359 687.6574707 42.33105469 686.88134766 C41.01584308 684.70626368 41.01584308 684.70626368 39.38989258 682.61328125 C37.75608813 680.42301328 37.00064377 678.29644113 36 675.75 C34.57465323 672.92977887 33.06048073 670.1571703 31.5625 667.375 C24.45687862 654.00311518 18.06246386 640.29891362 11.64712524 626.58656311 C10.02829205 623.12950259 8.40433952 619.67485731 6.7800293 616.22036743 C5.57922033 613.66064219 4.38623788 611.09736389 3.19335938 608.53393555 C2.44309485 606.9365046 1.69245993 605.33924756 0.94140625 603.7421875 C0.6032338 603.00977341 0.26506134 602.27735931 -0.08335876 601.52275085 C-2.47838312 596.45952902 -4.91458144 592.18993186 -9.625 588.9375 C-15.15643395 586.99125472 -20.46797153 586.59407396 -25.875 589.0625 C-31.29679166 595.91947181 -32.76428261 605.21876626 -33.9375 613.6875 C-34.09444336 614.78070557 -34.25138672 615.87391113 -34.41308594 617.00024414 C-36.20379123 630.18894446 -37.4582258 643.44253607 -38.75 656.6875 C-38.86286346 657.83314423 -38.97572693 658.97878845 -39.0920105 660.15914917 C-39.4174798 663.48957356 -39.73384323 666.82072946 -40.046875 670.15234375 C-40.14353958 671.14226318 -40.24020416 672.13218262 -40.33979797 673.15209961 C-41.94787876 686.24767886 -41.94787876 686.24767886 -39 698.75 C-34.18362495 703.10041472 -27.79636336 705.10195709 -21.75 707.125 C0.4862939 714.9840261 0.4862939 714.9840261 6 724.75 C7.9882534 729.43229373 8.39514162 733.49806037 7.125 738.4375 C4.98789238 743.62632486 2.11748103 746.46001928 -3 748.75 C-12.049884 751.32845857 -21.31045342 751.94171664 -30.67724609 752.31469727 C-31.67585348 752.35580659 -32.67446087 752.39691591 -33.70332909 752.43927097 C-44.33630922 752.84655359 -54.96191479 752.92250045 -65.6015625 752.90234375 C-67.15184584 752.90129292 -67.15184584 752.90129292 -68.73344803 752.90022087 C-93.16861388 752.87177052 -117.57996447 752.18637707 -142.0012207 751.41760254 C-146.54870591 751.27593582 -151.09636969 751.1405902 -155.64405441 751.0055027 C-192.08320736 749.92298134 -192.08320736 749.92298134 -205.09472656 749.39404297 C-206.38400055 749.34215317 -207.67327454 749.29026337 -209.00161743 749.23680115 C-211.2692412 749.14259641 -213.53666953 749.04348322 -215.80380249 748.93812561 C-216.75236115 748.89787766 -217.7009198 748.8576297 -218.67822266 748.81616211 C-219.4766861 748.77897568 -220.27514954 748.74178925 -221.09780884 748.70347595 C-223.08891986 748.61728893 -223.08891986 748.61728893 -225 749.75 C-225 749.09 -225 748.43 -225 747.75 C-225.8431073 747.75981903 -225.8431073 747.75981903 -226.70324707 747.76983643 C-243.30074126 747.93387611 -259.84311967 747.47029992 -276.42089844 746.68798828 C-279.15428879 746.55970435 -281.88782398 746.44199536 -284.62207031 746.33349609 C-325.162797 744.71732473 -325.162797 744.71732473 -335 734.75 C-335.78375 733.96625 -336.5675 733.1825 -337.375 732.375 C-341.01545548 726.49426422 -341.57235777 721.22914972 -340.0234375 714.62109375 C-338.77683886 711.12395634 -337.06168109 707.9761193 -335.25 704.75 C-317.06258945 672.21636001 -326.07374403 636.27436048 -331.57421875 601.32568359 C-331.72587494 600.36160583 -331.87753113 599.39752808 -332.03378296 598.40423584 C-332.31889682 596.59954309 -332.60618112 594.79519122 -332.89614868 592.99127197 C-339.14486482 553.65450657 -334.36373393 515.2728086 -310.59716797 482.50073242 C-305.14509569 475.17087833 -299.2523923 468.40896262 -293 461.75 C-291.8681261 460.46435259 -290.74262123 459.17305646 -289.625 457.875 C-279.75827627 446.55253015 -269.52949928 435.21509157 -258.140625 425.3984375 C-253.88748323 421.7104337 -249.94021789 417.76717527 -246 413.75 C-241.46414925 409.12555842 -236.86471614 404.68374402 -231.95556641 400.45605469 C-228.78087528 397.68642403 -225.74492483 394.77257809 -222.6875 391.875 C-217.4991401 386.99653717 -212.2237869 382.32133449 -206.65234375 377.87890625 C-203.84100724 375.62238431 -201.11328861 373.28195063 -198.375 370.9375 C-171.08965662 348.28750453 -140.47635543 334.74242761 -105 331.125 C-103.78594482 330.99875244 -102.57188965 330.87250488 -101.32104492 330.74243164 C-89.1080228 329.58048714 -76.88606693 329.27520514 -64.62304688 329.12841797 C-56.77949531 329.01953616 -49.01951156 328.68861841 -41.21484375 327.8671875 C-40.10536125 327.75587746 -40.10536125 327.75587746 -38.97346497 327.64231873 C-28.57921803 326.44319277 -20.56149049 321.24123409 -13.9921875 313.24609375 C-12.94243809 311.90150473 -11.90387323 310.54812976 -10.875 309.1875 C-10.31659424 308.45080078 -9.75818848 307.71410156 -9.18286133 306.95507812 C6.4653353 285.88807915 24.1299183 257.5243129 21.77734375 230.16015625 C20.46462657 222.70443249 16.44292951 215.99031055 10.44799805 211.33740234 C0.28359066 204.74630063 -11.72369334 201.40463294 -23.33654785 198.40594482 C-27.28334053 197.38245666 -31.2161468 196.30813784 -35.1484375 195.23046875 C-35.91865234 195.01944519 -36.68886719 194.80842163 -37.48242188 194.59100342 C-53.00657757 190.2930658 -67.93750888 184.63351775 -82 176.75 C-82.71607422 176.34942383 -83.43214844 175.94884766 -84.16992188 175.53613281 C-95.70144994 168.99026541 -105.99712557 161.43485499 -116 152.75 C-116.55945313 152.27030762 -117.11890625 151.79061523 -117.6953125 151.29638672 C-138.83713203 133.07178082 -157.85929493 104.95245375 -161.2734375 76.46875 C-161.46873566 72.20223633 -161.44294299 70.34480915 -158.8125 66.8125 C-150.67663864 60.84620167 -141.95372085 61.53346742 -132.4375 62.9375 C-130.98005371 63.14777832 -130.98005371 63.14777832 -129.49316406 63.36230469 C-108.31880308 66.5654437 -89.73786421 74.77748461 -70.65789795 84.11865234 C-62.21146983 88.25384828 -53.75919662 92.32832275 -45.125 96.0625 C-44.31893311 96.41683105 -43.51286621 96.77116211 -42.68237305 97.13623047 C-37.54761749 99.31791555 -32.48230984 100.7258233 -27 101.75 C-27.58662945 89.69322104 -28.65706352 77.74431353 -30 65.75 C-31.68370898 50.71210828 -33.20586525 35.65132919 -33.1875 20.5 C-33.1862915 19.39277588 -33.1862915 19.39277588 -33.18505859 18.26318359 C-32.98831077 0.44400343 -32.98831077 0.44400343 -29 -5.25 C-19.6529416 -9.97490881 -8.76678407 -3.83804044 0 0 Z M-84.7578125 646.34765625 C-85.88432896 647.49858534 -87.00647232 648.65380551 -88.125 649.8125 C-92.31645533 654.08145793 -96.51428337 658.2393168 -101.0859375 662.10546875 C-102.43270335 663.26258798 -103.74818863 664.45662259 -105.0390625 665.67578125 C-111.99367399 672.21216009 -119.59647827 677.72814417 -127.31640625 683.3203125 C-136.19518445 689.4230163 -136.19518445 689.4230163 -144 696.75 C-144.25069913 699.37570704 -144.25069913 699.37570704 -144 701.75 C-129.06640813 709.93432587 -104.54017368 708.96988305 -88.390625 704.6015625 C-83.47782488 702.85157814 -81.38723757 701.52447513 -79 696.75 C-77.15496902 691.18574596 -77.81405973 685.02831817 -77.81469727 679.22802734 C-77.81254827 677.04894332 -77.79448719 674.87039819 -77.77539062 672.69140625 C-77.73747893 662.90102352 -78.55833645 653.43079115 -80 643.75 C-82.3887877 643.52144863 -82.3887877 643.52144863 -84.7578125 646.34765625 Z " fill="#d5d5d090" transform="translate(557,121.25)"/>
</svg>